/* XPM */
static char * buttons_xpm[] = {
"48 48 4 1",
" 	c #FFFFFFFFFFFF",
".	c #AEBAAAAAAEBA",
"X	c #000000000000",
"o	c #208120812081",
"               .               .               .",
" ..............X ..............X ..............X",
" ..............X ..............X ..............X",
" .....o........X ..ooooo.......X ..ooooo.......X",
" ....oo........X ......o.......X ......o.......X",
" .....o........X ......o.......X ......o.......X",
" .....o........X ..ooooo.......X ....ooo.......X",
" .....o........X ..o...........X ......o.......X",
" .....o........X ..o...........X ......o.......X",
" ....ooo.......X ..ooooo.......X ..ooooo.......X",
" ..............X ..............X ..............X",
" ..............X ..............X ..............X",
" ..............X ..............X ..............X",
" ..............X ..............X ..............X",
" ..............X ..............X ..............X",
".XXXXXXXXXXXXXXXXXXXXXXXXXXXXXXXXXXXXXXXXXXXXXXX",
"               .               .               .",
" ..............X ..............X ..............X",
" ..............X ..............X ..............X",
" ..o...o.......X ..ooooo.......X ..ooooo.......X",
" ..o...o.......X ..o...........X ..o...........X",
" ..o...o.......X ..o...........X ..o...........X",
" ..ooooo.......X ..ooooo.......X ..ooooo.......X",
" ......o.......X ......o.......X ..o...o.......X",
" ......o.......X ......o.......X ..o...o.......X",
" ......o.......X ..ooooo.......X ..ooooo.......X",
" ..............X ..............X ..............X",
" ..............X ..............X ..............X",
" ..............X ..............X ..............X",
" ..............X ..............X ..............X",
" ..............X ..............X ..............X",
".XXXXXXXXXXXXXXXXXXXXXXXXXXXXXXXXXXXXXXXXXXXXXXX",
"               .               .               .",
" ..............X ..............X ..............X",
" ..............X ..............X ..............X",
" ..ooooo.......X ..ooooo.......X ..ooooo.......X",
" ......o.......X ..o...o.......X ..o...o.......X",
" ......o.......X ..o...o.......X ..o...o.......X",
" ......o.......X ..ooooo.......X ..ooooo.......X",
" ......o.......X ..o...o.......X ......o.......X",
" ......o.......X ..o...o.......X ......o.......X",
" ......o.......X ..ooooo.......X ......o.......X",
" ..............X ..............X ..............X",
" ..............X ..............X ..............X",
" ..............X ..............X ..............X",
" ..............X ..............X ..............X",
" ..............X ..............X ..............X",
".XXXXXXXXXXXXXXXXXXXXXXXXXXXXXXXXXXXXXXXXXXXXXXX"};
