/* XPM */
static char *face_god[] = {
/* width height num_colors chars_per_pixel */
"    52    46       44            1",
/* colors */
". c #000000",
"# c #1c1c1c",
"a c #0c0c0c",
"b c #493424",
"c c #db7d7d",
"d c #ffdbc7",
"e c #ffc7a6",
"f c #ffbe9a",
"g c #ffba92",
"h c #ffb282",
"i c #f7aa7d",
"j c #efa275",
"k c #e79a6d",
"l c #df9265",
"m c #d78a5d",
"n c #cf8255",
"o c #cb8251",
"p c #be7d4d",
"q c #b27549",
"r c #aa7145",
"s c #a26d41",
"t c #9a653c",
"u c #8e6138",
"v c #865934",
"w c #825530",
"x c #79512c",
"y c #6d4928",
"z c #614524",
"A c #554120",
"B c #4d381c",
"C c #413018",
"D c #342c14",
"E c #2c2410",
"F c #9e8265",
"G c #695534",
"H c #d7ba45",
"I c #c39a30",
"J c #ae7d20",
"K c #9a5d14",
"L c #ffd7ba",
"M c #ffb27d",
"N c #ffa25d",
"O c #ffffff",
"P c #ffffd7",
/* pixels */
"..aaaaaaaaaaaaaaaaaaaaaaaaaaaaaaaaaaaaaaaaaaaaaaaaaa",
"..aaaaaaaaaaaaaaaaaaaaaaaaaaaaaaaaaaaaaaaaaaaaaaaaaa",
"..#############BBzzzzyyxxxxxxxyyzzzB###############a",
"..##########DDzAAzyyuppqnnnqqrttxzzAzzD############a",
"..##########DDzAAzyyuppqnnnqqrttxzzAzzD############a",
"..#########DzzxuutpponnsqqttttuuuxxxAABDD##########a",
"..#########DxxvxxuttqvvruusxxxxxxzzADDDEE##########a",
"..#########DxxvxxuttqvvruusxxxxxxzzADDDEE##########a",
"..#######EECzzxzzuttuuuuuuBuuzBBzBBDEEEEEE#########a",
"..#######EECBBAzzuAAtyyyuuyBByBBCzzEDDDCCE#########a",
"..#######EECBBAzzuAAtyyyuuyBByBBCzzEDDDCCE#########a",
"..#######EEBBBxxxAuuAyyxyyyuuuuuvvvyBBCBBE#########a",
"..#######EEBAAxuuxAAsAAxuusqqtssuuuuyyBBBE#########a",
"..#######EEBAAxuuxAAsAAxuusqqtssuuuuyyBBBE#########a",
"..#######EEBzzurrqsssqqqqqqqqqsssqqruuABBE#########a",
"..#######EEBxxtnnoooqssrrrrrrsqqooonttzBBE#########a",
"..#######EEBxxtnnoooqssrrrrrrsqqooonttzBBE#########a",
"..#######EEBxxtnnjkknppsuuusspnnkjjnttxBBE#########a",
"..#######EEBxxqkkdhhkkknmmmnnkkkhddkqqxBBE#########a",
"..#######EEBxxqkkdhhkkknmmmnnkkkhddkqqxBBE#########a",
"..######qyyBxxyyyAsslqqxqqqxxqllsAAyyyxBByqq#######a",
"..######qyybuurrrtvvxyyyuuuyyyxxvttrrrubbyqq#######a",
"..######qyybuurrrtvvxyyyuuuyyyxxvttrrrubbyqq#######a",
"..######uyyGqqxIIPOOHIIKmmmKKIHHOPPIxxqGGyuu#######a",
"..######yzzvqqurrIHHIJJunnkuuJIIHIIruuqvvzyy#######a",
"..######yzzvqqurrIHHIJJunnkuuJIIHIIruuqvvzyy#######a",
"..######vzzvccmppruuroomNNMmmorrurrpmmcvvzvv#######a",
"..######uzzunnljjlooNggkNNMkkgNNolljllnuuzuu#######a",
"..######uzzunnljjlooNggkNNMkkgNNolljllnuuzuu#######a",
"..#######zzvssrppmNNellmMMLmmleeNmmprrsvvz#########a",
"..#######zzxttsppjiimrrtFFFttrmmijjpsstxxz#########a",
"..#######zzxttsppjiimrrtFFFttrmmijjpsstxxz#########a",
"..#########xqqtmmgkkpAAxvvvxxAppkggmttqxx##########a",
"..#########zootkkinnnmmpsssppmnnniikttozz##########a",
"..#########zootkkinnnmmpsssppmnnniikttozz##########a",
"..#########ArrsmmknnmiiflllffimmnkkmssrAA##########a",
"..##########vvroomuuxKKKKKKKKKxxummorrv############a",
"..##########vvroomuuxKKKKKKKKKxxummorrv############a",
"..##########AAuqqoooommkNNNkkmoooooquuA############a",
"..############yrrnllorruwwwuuroolnnryy#############a",
"..############yrrnllorruwwwuuroolnnryy#############a",
"..#############yyrnnloookkkooollnrry###############a",
"..###############AvvqmmkfffkkmqqvAA################a",
"..###############AvvqmmkfffkkmqqvAA################a",
"..################EEyuussssssuyyE##################a",
"..#################################################a"
};
