/* XPM */
static char * face_3c[] = {
"52 46 257 2",
"  	c None",
". 	c #000000",
"+ 	c #808080",
"@ 	c #800000",
"# 	c #808000",
"$ 	c #008000",
"% 	c #008080",
"& 	c #000080",
"* 	c #800080",
"= 	c #808040",
"- 	c #004040",
"; 	c #0080FF",
"> 	c #004080",
", 	c #4000FF",
"' 	c #804000",
") 	c #FFFFFF",
"! 	c #C0C0C0",
"~ 	c #FF0000",
"{ 	c #FFFF00",
"] 	c #00FF00",
"^ 	c #00FFFF",
"/ 	c #0000FF",
"( 	c #FF00FF",
"_ 	c #FFFF80",
": 	c #00FF80",
"< 	c #80FFFF",
"[ 	c #8080FF",
"} 	c #FF0080",
"| 	c #FF8040",
"1 	c #C0DCC0",
"2 	c #A6CAF0",
"3 	c #0000A8",
"4 	c #00A800",
"5 	c #00A8A8",
"6 	c #A80000",
"7 	c #A800A8",
"8 	c #A85400",
"9 	c #A8A8A8",
"0 	c #545454",
"a 	c #5454FC",
"b 	c #54FC54",
"c 	c #54FCFC",
"d 	c #FC5454",
"e 	c #FC54FC",
"f 	c #FCFC54",
"g 	c #FCFCFC",
"h 	c #ECECEC",
"i 	c #DCDCDC",
"j 	c #D0D0D0",
"k 	c #B4B4B4",
"l 	c #989898",
"m 	c #8C8C8C",
"n 	c #7C7C7C",
"o 	c #707070",
"p 	c #646464",
"q 	c #484848",
"r 	c #383838",
"s 	c #2C2C2C",
"t 	c #202020",
"u 	c #FC0000",
"v 	c #EC0000",
"w 	c #E00000",
"x 	c #D40000",
"y 	c #C80000",
"z 	c #BC0000",
"A 	c #B00000",
"B 	c #A40000",
"C 	c #980000",
"D 	c #880000",
"E 	c #7C0000",
"F 	c #700000",
"G 	c #640000",
"H 	c #580000",
"I 	c #4C0000",
"J 	c #400000",
"K 	c #FCD8D8",
"L 	c #FCB8B8",
"M 	c #FC9C9C",
"N 	c #FC7C7C",
"O 	c #FC5C5C",
"P 	c #FC4040",
"Q 	c #FC2020",
"R 	c #FCA85C",
"S 	c #FC9840",
"T 	c #FC8820",
"U 	c #FC7800",
"V 	c #E46C00",
"W 	c #CC6000",
"X 	c #B45400",
"Y 	c #9C4C00",
"Z 	c #FCFCD8",
"` 	c #FCFCB8",
" .	c #FCFC9C",
"..	c #FCFC7C",
"+.	c #FCF85C",
"@.	c #FCF440",
"#.	c #FCF420",
"$.	c #FCF400",
"%.	c #E4D800",
"&.	c #CCC400",
"*.	c #B4AC00",
"=.	c #9C9C00",
"-.	c #848400",
";.	c #706C00",
">.	c #585400",
",.	c #404000",
"'.	c #D0FC5C",
").	c #C4FC40",
"!.	c #B4FC20",
"~.	c #A0FC00",
"{.	c #90E400",
"].	c #80CC00",
"^.	c #74B400",
"/.	c #609C00",
"(.	c #D8FCD8",
"_.	c #BCFCB8",
":.	c #9CFC9C",
"<.	c #80FC7C",
"[.	c #60FC5C",
"}.	c #40FC40",
"|.	c #20FC20",
"1.	c #00FC00",
"2.	c #00EC00",
"3.	c #00E000",
"4.	c #00D400",
"5.	c #04C800",
"6.	c #04BC00",
"7.	c #04B000",
"8.	c #04A400",
"9.	c #049800",
"0.	c #048800",
"a.	c #047C00",
"b.	c #047000",
"c.	c #046400",
"d.	c #045800",
"e.	c #044C00",
"f.	c #044000",
"g.	c #D8FCFC",
"h.	c #B8FCFC",
"i.	c #9CFCFC",
"j.	c #7CFCF8",
"k.	c #5CFCFC",
"l.	c #40FCFC",
"m.	c #20FCFC",
"n.	c #00FCFC",
"o.	c #00E4E4",
"p.	c #00CCCC",
"q.	c #00B4B4",
"r.	c #009C9C",
"s.	c #008484",
"t.	c #007070",
"u.	c #005858",
"v.	c #5CBCFC",
"w.	c #40B0FC",
"x.	c #20A8FC",
"y.	c #009CFC",
"z.	c #008CE4",
"A.	c #007CCC",
"B.	c #006CB4",
"C.	c #005C9C",
"D.	c #D8D8FC",
"E.	c #B8BCFC",
"F.	c #9C9CFC",
"G.	c #7C80FC",
"H.	c #5C60FC",
"I.	c #4040FC",
"J.	c #2024FC",
"K.	c #0004FC",
"L.	c #0000FC",
"M.	c #0000EC",
"N.	c #0000E0",
"O.	c #0000D4",
"P.	c #0000C8",
"Q.	c #0000BC",
"R.	c #0000B0",
"S.	c #0000A4",
"T.	c #000098",
"U.	c #000088",
"V.	c #00007C",
"W.	c #000070",
"X.	c #000064",
"Y.	c #000058",
"Z.	c #00004C",
"`.	c #000040",
" +	c #282828",
".+	c #FCE034",
"++	c #FCD424",
"@+	c #FCCC18",
"#+	c #FCC008",
"$+	c #FCB400",
"%+	c #B420FC",
"&+	c #A800FC",
"*+	c #9800E4",
"=+	c #8000CC",
"-+	c #7400B4",
";+	c #60009C",
">+	c #500084",
",+	c #440070",
"'+	c #340058",
")+	c #280040",
"!+	c #FCD8FC",
"~+	c #FCB8FC",
"{+	c #FC9CFC",
"]+	c #FC7CFC",
"^+	c #FC5CFC",
"/+	c #FC40FC",
"(+	c #FC20FC",
"_+	c #FC00FC",
":+	c #E000E4",
"<+	c #C800CC",
"[+	c #B400B4",
"}+	c #9C009C",
"|+	c #840084",
"1+	c #6C0070",
"2+	c #580058",
"3+	c #400040",
"4+	c #FCE8DC",
"5+	c #FCE0D0",
"6+	c #FCD8C4",
"7+	c #FCD4BC",
"8+	c #FCCCB0",
"9+	c #FCC4A4",
"0+	c #FCBC9C",
"a+	c #FCB890",
"b+	c #FCB080",
"c+	c #FCA470",
"d+	c #FC9C60",
"e+	c #F0945C",
"f+	c #E88C58",
"g+	c #DC8854",
"h+	c #D08050",
"i+	c #C87C4C",
"j+	c #BC7848",
"k+	c #B47044",
"l+	c #A86840",
"m+	c #A0643C",
"n+	c #9C6038",
"o+	c #905C34",
"p+	c #885830",
"q+	c #80502C",
"r+	c #744C28",
"s+	c #6C4824",
"t+	c #5C4020",
"u+	c #543C1C",
"v+	c #483818",
"w+	c #403018",
"x+	c #382C14",
"y+	c #28200C",
"z+	c #600064",
"A+	c #006464",
"B+	c #006060",
"C+	c #00001C",
"D+	c #00002C",
"E+	c #302410",
"F+	c #480048",
"G+	c #FFFBF0",
"H+	c #A0A0A4",
". . . . . . . . . . . . . . Y Y W X X W W W V V W V V V V V V V V V V W Y Y . . . . . . . . . . . . . . ",
". . . . . . . . . . . . . . W W V V V V V V V V V V V V V V V V V V V V 8 8 . . . . . . . . . . . . . . ",
". . . . . . . . . . . . . W W W V V V V V V V V U U U U U U T T T T T U V V 8 . . . . . . . . . . . . . ",
". . . . . . . . . . . . . W W W V V V V V V V V U U U U U U T T T T T U V V 8 . . . . . . . . . . . . . ",
". . . . . . . . . . . X X W W W V V V V U U U U U U U U U U U T T T T T U U U 8 8 . . . . . . . . . . . ",
". . . . . . . . . . . 8 8 X W W W W W V V V V V U V V V V V V U U T T S U U U W W . . . . . . . . . . . ",
". . . . . . . . . . . 8 8 X W W W W W V V V V V U V V V V V V U U T T S U U U W W . . . . . . . . . . . ",
". . . . . . . . . . . Y Y X X X X X X W W W W W T W W W W W U U U T T S U U U W W . . . . . . . . . . . ",
". . . . . . . . . . . q+q+8 X X q+q+q+q+X X X X V q+q+q+o+o+X W W U U T U U W q+q+. . . . . . . . . . . ",
". . . . . . . . . . . q+q+8 X X q+q+q+q+X X X X V q+q+q+o+o+X W W U U T U U W q+q+. . . . . . . . . . . ",
". . . . . . . . . . . q+q+8 q+q+t+t+t+t+q+q+X X X t+t+t+q+q+o+U U W W U X X Y q+q+. . . . . . . . . . . ",
". . . . . . . . . . . s+s+8 t+t+t+k+k+k+n+n+l+l+X t+t+t+t+t+t+X X W W V t+t+t+s+s+. . . . . . . . . . . ",
". . . . . . . . . . . s+s+8 t+t+t+k+k+k+n+n+l+l+X t+t+t+t+t+t+X X W W V t+t+t+s+s+. . . . . . . . . . . ",
". . . . . . . . . . . s+s+t+t+t+k+g+g+d+f+f+n+n+8 i+i+n+t+t+l+X X W W V d+d+t+s+s+. . . . . . . . . . . ",
". . . . . . . . . . . s+s+t+t+t+k+g+g+d+f+f+n+n+8 i+i+n+t+t+l+X X W W V d+d+t+s+s+. . . . . . . . . . . ",
". . . . . . . . . . . u+u+t+k+k+g+b+b+9+b+b+h+h+b+g+g+i+k+k+l+8 8 W W X b+b+i+u+u+. . . . . . . . . . . ",
". . . . . . . . . . . u+u+t+h+h+e+a+a+a+9+9+8+8+9+b+b+g+h+h+f+8 8 f+f+b+9+9+d+u+u+. . . . . . . . . . . ",
". . . . . . . . . . . u+u+t+h+h+e+a+a+a+9+9+8+8+9+b+b+g+h+h+f+8 8 f+f+b+9+9+d+u+u+. . . . . . . . . . . ",
". . . . . . . . . . h+u+u+k+e+e+r r r q h+h+a+a+8+9+9+b+e+e+8 q q r r r 6+6+b+u+u+h+. . . . . . . . . . ",
". . . . . . . . . . d+t+t+k+q q h+X.X.t t t t t g+e+e+g+t t t t t t t q q q 6+t+t+b+. . . . . . . . . . ",
". . . . . . . . . . d+t+t+k+q q h+X.X.t t t t t g+e+e+g+t t t t t t t q q q 6+t+t+b+. . . . . . . . . . ",
". . . . . . . . . . o+t+t+h+b+b+i 3 3 q d d 6 6 n+l+l+j+6 6 x u u d d 6 d d 0+t+t+o+. . . . . . . . . . ",
". . . . . . . . . . h+g+g+b+9+9+9+b+b+b+c+c+c+c+f+c+c+c+b+b+(+<+<+e e ]+9+9+6+b+b+h+. . . . . . . . . . ",
". . . . . . . . . . h+g+g+b+9+9+9+b+b+b+c+c+c+c+f+c+c+c+b+b+(+<+<+e e ]+9+9+6+b+b+h+. . . . . . . . . . ",
". . . . . . . . . . f+g+g+a+9+9+6+6+6+6+9+9+9+9+c+9+9+9+9+9+8+6+6+6+6+4+4+4+6+8+8+f+. . . . . . . . . . ",
". . . . . . . . . . f+g+g+a+9+9+6+6+6+6+9+9+9+9+c+9+9+9+9+9+8+6+6+6+6+4+4+4+6+8+8+f+. . . . . . . . . . ",
". . . . . . . . . . . g+g+a+9+9+7+6+6+7+9+9+i+i+b+7+7+6+e+e+8+7+7+7+7+5+5+5+4+8+8+v+. . . . . . . . . . ",
". . . . . . . . . . . h+h+c+b+b+0+9+9+9+0+0+f+f+h+d+d+c+c+c+a+8+8+8+8+6+6+6+6+8+8+t+. . . . . . . . . . ",
". . . . . . . . . . . h+h+c+b+b+0+9+9+9+0+0+f+f+h+d+d+c+c+c+a+8+8+8+8+6+6+6+6+8+8+t+. . . . . . . . . . ",
". . . . . . . . . . . k+k+c+c+c+a+0+0+a+b+b+b+b+E n+n+E b+b+a+a+a+8+8+8+8+8+9+b+b+r+. . . . . . . . . . ",
". . . . . . . . . . . q+q+i+e+e+b+b+b+c+c+c+e+e+d i+i+d b+b+b+b+b+a+a+a+a+a+a+h+h+. . . . . . . . . . . ",
". . . . . . . . . . . q+q+i+e+e+b+b+b+c+c+c+e+e+d i+i+d b+b+b+b+b+a+a+a+a+a+a+h+h+. . . . . . . . . . . ",
". . . . . . . . . . . q+q+i+e+e+e+c+c+h+w+w+r+r+G G G G r+r+w+e+e+b+b+a+a+a+a+k+k+. . . . . . . . . . . ",
". . . . . . . . . . . . . k+i+i+c+h+h+6 d d b+b+0+d d 6 6 6 y d d e+e+a+a+a+b+o+o+. . . . . . . . . . . ",
". . . . . . . . . . . . . k+i+i+c+h+h+6 d d b+b+0+d d 6 6 6 y d d e+e+a+a+a+b+o+o+. . . . . . . . . . . ",
". . . . . . . . . . . . . p+k+k+f+a+a+y 6 6 e+e+g+i+i+g+e+e+u c+c+9+9+9+b+b+g+r+r+. . . . . . . . . . . ",
". . . . . . . . . . . . . p+k+k+f+a+a+y 6 6 e+e+g+i+i+g+e+e+u c+c+9+9+9+b+b+g+r+r+. . . . . . . . . . . ",
". . . . . . . . . . . . . p+v+v+k+c+c+9+d d 9+9+a+c+c+a+9+9+d 9+9+9+9+d+d+d+b+w+w+. . . . . . . . . . . ",
". . . . . . . . . . . . . p+v+v+v+k+k+i+e+e+e+e+e+i+i+e+6 6 e+e+e+e+e+o+b+b+9+. . . . . . . . . . . . . ",
". . . . . . . . . . . . . p+v+v+v+k+k+i+e+e+e+e+e+i+i+e+6 6 e+e+e+e+e+o+b+b+9+. . . . . . . . . . . . . ",
". . . . . . . . . . . . . p+v+v+p+v+v+v+v+v+v+v+v+t+t+r+r+r+r+r+r+o+o+h+9+9+9+. . . . . . . . . . . . . ",
". . . . . . . . . . . . . o+t+t+q+r+r+r+q+q+n+n+n+n+n+n+n+n+l+i+i+9+9+c+g+g+c+. . . . . . . . . . . . . ",
". . . . . . . . . . . . . o+t+t+q+r+r+r+q+q+n+n+n+n+n+n+n+n+l+i+i+9+9+c+g+g+c+. . . . . . . . . . . . . ",
". . . . . . . . . . . . . r+t+t+r+q+q+n+n+n+g+g+k+i+i+i+i+i+j+b+b+0+0+9+d+d+i+. . . . . . . . . . . . . ",
". . . . . . . . . . . . . r+r+r+q+n+n+h+g+g+b+b+g+9+9+a+e+e+i+c+c+7+7+c+c+c+m+. . . . . . . . . . . . . ",
". . . . . . . . . . . . . r+r+r+q+n+n+h+g+g+b+b+g+9+9+a+e+e+i+c+c+7+7+c+c+c+m+. . . . . . . . . . . . . "};
