#define mask_width 64
#define mask_height 64

static char mask_bits[] = {
 0x00, 0x00, 0x00, 0x00, 0x00, 0x00, 0x00, 0x00,
 0x00, 0x00, 0x00, 0x00, 0x00, 0x00, 0x00, 0x00,
 0x00, 0x00, 0x00, 0x00, 0x00, 0x00, 0x00, 0x00,
 0x00, 0x00, 0x00, 0x00, 0x00, 0x00, 0x00, 0x00,
 0x00, 0x00, 0x00, 0x00, 0x00, 0x00, 0x00, 0x00,
 0xe0, 0xff, 0xff, 0xff, 0xff, 0xff, 0xff, 0x07,
 0xe0, 0xff, 0xff, 0xff, 0xff, 0xff, 0xff, 0x07,
 0xe0, 0xff, 0xff, 0xff, 0xff, 0xff, 0xff, 0x07,
 0xe0, 0xff, 0xff, 0xff, 0xff, 0xff, 0xff, 0x07,
 0xe0, 0xff, 0xff, 0xff, 0xff, 0xff, 0xff, 0x07,
 0xe0, 0xff, 0xff, 0xff, 0xff, 0xff, 0xff, 0x07,
 0xe0, 0xff, 0xff, 0xff, 0xff, 0xff, 0xff, 0x07,
 0xe0, 0xff, 0xff, 0xff, 0xff, 0xff, 0xff, 0x07,	
 0xe0, 0xff, 0xff, 0xff, 0xff, 0xff, 0xff, 0x07,	
 0xe0, 0xff, 0xff, 0xff, 0xff, 0xff, 0xff, 0x07,	
 0xe0, 0xff, 0xff, 0xff, 0xff, 0xff, 0xff, 0x07,	
 0xe0, 0xff, 0xff, 0xff, 0xff, 0xff, 0xff, 0x07,
 0xe0, 0xff, 0xff, 0xff, 0xff, 0xff, 0xff, 0x07,
 0xe0, 0xff, 0xff, 0xff, 0xff, 0xff, 0xff, 0x07,
 0xe0, 0xff, 0xff, 0xff, 0xff, 0xff, 0xff, 0x07,
 0xe0, 0xff, 0xff, 0xff, 0xff, 0xff, 0xff, 0x07,
 0xe0, 0xff, 0xff, 0xff, 0xff, 0xff, 0xff, 0x07,
 0xe0, 0xff, 0xff, 0xff, 0xff, 0xff, 0xff, 0x07,
 0xe0, 0xff, 0xff, 0xff, 0xff, 0xff, 0xff, 0x07,
 0xe0, 0xff, 0xff, 0xff, 0xff, 0xff, 0xff, 0x07,
 0xe0, 0xff, 0xff, 0xff, 0xff, 0xff, 0xff, 0x07,
 0xe0, 0xff, 0xff, 0xff, 0xff, 0xff, 0xff, 0x07,
 0xe0, 0xff, 0xff, 0xff, 0xff, 0xff, 0xff, 0x07,
 0xe0, 0xff, 0xff, 0xff, 0xff, 0xff, 0xff, 0x07,
 0xe0, 0xff, 0xff, 0xff, 0xff, 0xff, 0xff, 0x07,
 0xe0, 0xff, 0xff, 0xff, 0xff, 0xff, 0xff, 0x07,
 0xe0, 0xff, 0xff, 0xff, 0xff, 0xff, 0xff, 0x07,
 0xe0, 0xff, 0xff, 0xff, 0xff, 0xff, 0xff, 0x07,
 0xe0, 0xff, 0xff, 0xff, 0xff, 0xff, 0xff, 0x07,
 0xe0, 0xff, 0xff, 0xff, 0xff, 0xff, 0xff, 0x07,
 0xe0, 0xff, 0xff, 0xff, 0xff, 0xff, 0xff, 0x07,
 0xe0, 0xff, 0xff, 0xff, 0xff, 0xff, 0xff, 0x07,
 0xe0, 0xff, 0xff, 0xff, 0xff, 0xff, 0xff, 0x07,
 0xe0, 0xff, 0xff, 0xff, 0xff, 0xff, 0xff, 0x07,
 0xe0, 0xff, 0xff, 0xff, 0xff, 0xff, 0xff, 0x07,
 0xe0, 0xff, 0xff, 0xff, 0xff, 0xff, 0xff, 0x07,
 0xe0, 0xff, 0xff, 0xff, 0xff, 0xff, 0xff, 0x07,
 0xe0, 0xff, 0xff, 0xff, 0xff, 0xff, 0xff, 0x07,
 0xe0, 0xff, 0xff, 0xff, 0xff, 0xff, 0xff, 0x07,
 0xe0, 0xff, 0xff, 0xff, 0xff, 0xff, 0xff, 0x07,
 0xe0, 0xff, 0xff, 0xff, 0xff, 0xff, 0xff, 0x07,
 0xe0, 0xff, 0xff, 0xff, 0xff, 0xff, 0xff, 0x07,
 0xe0, 0xff, 0xff, 0xff, 0xff, 0xff, 0xff, 0x07,
 0xe0, 0xff, 0xff, 0xff, 0xff, 0xff, 0xff, 0x07,
 0xe0, 0xff, 0xff, 0xff, 0xff, 0xff, 0xff, 0x07,
 0xe0, 0xff, 0xff, 0xff, 0xff, 0xff, 0xff, 0x07,
 0xe0, 0xff, 0xff, 0xff, 0xff, 0xff, 0xff, 0x07,
 0xe0, 0xff, 0xff, 0xff, 0xff, 0xff, 0xff, 0x07,
 0xe0, 0xff, 0xff, 0xff, 0xff, 0xff, 0xff, 0x07,
 0xe0, 0xff, 0xff, 0xff, 0xff, 0xff, 0xff, 0x07,
 0xe0, 0xff, 0xff, 0xff, 0xff, 0xff, 0xff, 0x07,
 0xe0, 0xff, 0xff, 0xff, 0xff, 0xff, 0xff, 0x07,
 0xe0, 0xff, 0xff, 0xff, 0xff, 0xff, 0xff, 0x07,
 0xe0, 0xff, 0xff, 0xff, 0xff, 0xff, 0xff, 0x07,
 0x00, 0x00, 0x00, 0x00, 0x00, 0x00, 0x00, 0x00,
 0x00, 0x00, 0x00, 0x00, 0x00, 0x00, 0x00, 0x00,
 0x00, 0x00, 0x00, 0x00, 0x00, 0x00, 0x00, 0x00,
 0x00, 0x00, 0x00, 0x00, 0x00, 0x00, 0x00, 0x00,
 0x00, 0x00, 0x00, 0x00, 0x00, 0x00, 0x00, 0x00 };
